<svg xmlns="http://www.w3.org/2000/svg" xmlns:xlink="http://www.w3.org/1999/xlink" width="159.764" height="330" viewBox="0 0 159.764 330"><defs><filter id="a" x="0" y="119.001" width="159.764" height="100" filterUnits="userSpaceOnUse"><feOffset dy="4" input="SourceAlpha"/><feGaussianBlur stdDeviation="12" result="b"/><feFlood flood-color="#121212" flood-opacity="0.078"/><feComposite operator="in" in2="b"/><feComposite in="SourceGraphic"/></filter></defs><g transform="translate(-26.236 -194)"><path d="M0,0H8A0,0,0,0,1,8,0V62a4,4,0,0,1-4,4H4a4,4,0,0,1-4-4V0A0,0,0,0,1,0,0Z" transform="translate(48 458)" fill="#ff2e50"/><rect width="8" height="66" transform="translate(48 392)" fill="#ff2e50" opacity="0.6"/><rect width="8" height="66" transform="translate(48 326)" fill="#121212" opacity="0.6"/><rect width="8" height="66" transform="translate(48 260)" fill="#007aff" opacity="0.6"/><path d="M4,0H4A4,4,0,0,1,8,4V66a0,0,0,0,1,0,0H0a0,0,0,0,1,0,0V4A4,4,0,0,1,4,0Z" transform="translate(48 194)" fill="#007aff"/><g transform="translate(0 -95)"><g transform="matrix(1, 0, 0, 1, 26.24, 289)" filter="url(#a)"><path d="M8580-5134a4,4,0,0,1-4-4v-5.5l-7.213-3.606a1,1,0,0,1,0-1.79L8576-5152.5v-5.5a4,4,0,0,1,4-4h72a4,4,0,0,1,4,4v20a4,4,0,0,1-4,4Z" transform="translate(-8532.24 5313)" fill="#121212" opacity="0.6"/></g><text transform="translate(82 460)" fill="#fff" font-size="16" font-family="IBMPlexSans-SemiBold, IBM Plex Sans" font-weight="600"><tspan x="0" y="0">Neutral</tspan></text></g></g></svg>